<svg xmlns="http://www.w3.org/2000/svg" version="1.1" xmlns:xlink="http://www.w3.org/1999/xlink" width="1024" height="1024"><svg xmlns="http://www.w3.org/2000/svg" version="1.1" xmlns:xlink="http://www.w3.org/1999/xlink" width="1024" height="1024"><svg xmlns="http://www.w3.org/2000/svg" viewBox="0 0 1024 1024" width="1024" height="1024">
  <rect width="1024" height="1024" rx="128" fill="#1C1C26"></rect>

  <!-- Row 1: 2 blocks -->
  <rect x="64" y="94" width="355" height="200" rx="6" fill="#00BCB0"></rect>
  <rect x="427" y="94" width="533" height="200" rx="6" fill="#FF5750"></rect>

  <!-- Row 2: 4 blocks -->
  <rect x="64" y="306" width="262" height="200" rx="6" fill="#1E88E5"></rect>
  <rect x="334" y="306" width="218" height="200" rx="6" fill="#FFB300"></rect>
  <rect x="560" y="306" width="218" height="200" rx="6" fill="#7E57C2"></rect>
  <rect x="786" y="306" width="174" height="200" rx="6" fill="#7CB342"></rect>

  <!-- Row 3: 7 blocks -->
  <rect x="64" y="518" width="138" height="200" rx="6" fill="#EC407A"></rect>
  <rect x="210" y="518" width="112" height="200" rx="6" fill="#00E5FF"></rect>
  <rect x="330" y="518" width="130" height="200" rx="6" fill="#FF6D00"></rect>
  <rect x="468" y="518" width="118" height="200" rx="6" fill="#10B981"></rect>
  <rect x="594" y="518" width="108" height="200" rx="6" fill="#D5008F"></rect>
  <rect x="710" y="518" width="126" height="200" rx="6" fill="#FFC400"></rect>
  <rect x="844" y="518" width="116" height="200" rx="6" fill="#3F51B5"></rect>

  <!-- Row 4: 12 blocks -->
  <rect x="64" y="730" width="86" height="200" rx="6" fill="#00BCB0"></rect>
  <rect x="158" y="730" width="58" height="200" rx="6" fill="#FF5750"></rect>
  <rect x="224" y="730" width="72" height="200" rx="6" fill="#1E88E5"></rect>
  <rect x="304" y="730" width="64" height="200" rx="6" fill="#EC407A"></rect>
  <rect x="376" y="730" width="52" height="200" rx="6" fill="#FFB300"></rect>
  <rect x="436" y="730" width="78" height="200" rx="6" fill="#7E57C2"></rect>
  <rect x="522" y="730" width="68" height="200" rx="6" fill="#00E5FF"></rect>
  <rect x="598" y="730" width="56" height="200" rx="6" fill="#FF6D00"></rect>
  <rect x="662" y="730" width="82" height="200" rx="6" fill="#C0DC2A"></rect>
  <rect x="752" y="730" width="62" height="200" rx="6" fill="#D5008F"></rect>
  <rect x="822" y="730" width="74" height="200" rx="6" fill="#38BDF8"></rect>
  <rect x="904" y="730" width="56" height="200" rx="6" fill="#F44383"></rect>
</svg></svg><style>@media (prefers-color-scheme: light) { :root { filter: none; } }
@media (prefers-color-scheme: dark) { :root { filter: none; } }
</style></svg>